<svg width="51" height="66" viewBox="0 0 51 66" fill="none" xmlns="http://www.w3.org/2000/svg">
<path d="M17.908 32.116C19.6387 32.4387 21.1053 33.3187 22.308 34.756C23.5107 36.1933 24.112 37.8653 24.112 39.772C24.112 41.3267 23.716 42.7347 22.924 43.996C22.1613 45.228 21.032 46.2107 19.536 46.944C18.04 47.648 16.2507 48 14.168 48H3.52V17.244H13.86C16.9693 17.244 19.3307 17.9627 20.944 19.4C22.5867 20.8373 23.408 22.7 23.408 24.988C23.408 26.8947 22.8947 28.4493 21.868 29.652C20.8413 30.8253 19.5213 31.6467 17.908 32.116ZM6.6 30.84H13.772C15.8547 30.84 17.4533 30.356 18.568 29.388C19.712 28.3907 20.284 27.0267 20.284 25.296C20.284 23.5947 19.712 22.26 18.568 21.292C17.4533 20.324 15.8107 19.84 13.64 19.84H6.6V30.84ZM13.948 45.404C16.1773 45.404 17.908 44.876 19.14 43.82C20.4013 42.764 21.032 41.312 21.032 39.464C21.032 37.616 20.372 36.1493 19.052 35.064C17.7613 33.9493 16.016 33.392 13.816 33.392H6.6V45.404H13.948ZM48.6399 36.261C48.6399 37.197 48.6139 37.912 48.5619 38.406H30.8949C30.9729 40.018 31.3629 41.396 32.0649 42.54C32.7669 43.684 33.6899 44.555 34.8339 45.153C35.9779 45.725 37.2259 46.011 38.5779 46.011C40.3459 46.011 41.8279 45.582 43.0239 44.724C44.2459 43.866 45.0519 42.709 45.4419 41.253H48.3279C47.8079 43.333 46.6899 45.036 44.9739 46.362C43.2839 47.662 41.1519 48.312 38.5779 48.312C36.5759 48.312 34.7819 47.87 33.1959 46.986C31.6099 46.076 30.3619 44.802 29.4519 43.164C28.5679 41.5 28.1259 39.563 28.1259 37.353C28.1259 35.143 28.5679 33.206 29.4519 31.542C30.3359 29.878 31.5709 28.604 33.1569 27.72C34.7429 26.836 36.5499 26.394 38.5779 26.394C40.6059 26.394 42.3739 26.836 43.8819 27.72C45.4159 28.604 46.5859 29.8 47.3919 31.308C48.2239 32.79 48.6399 34.441 48.6399 36.261ZM45.8709 36.183C45.8969 34.597 45.5719 33.245 44.8959 32.127C44.2459 31.009 43.3489 30.164 42.2049 29.592C41.0609 29.02 39.8129 28.734 38.4609 28.734C36.4329 28.734 34.7039 29.384 33.2739 30.684C31.8439 31.984 31.0509 33.817 30.8949 36.183H45.8709Z" fill="white"/>
<rect x="33" y="20" width="10" height="2" fill="white"/>
</svg>
