<svg width="49" height="23" viewBox="0 0 49 23" fill="none" xmlns="http://www.w3.org/2000/svg">
<path d="M8.4 0.4H17.36V4.176H8.656C5.232 4.176 4.208 5.808 4.208 7.824V9.872H17.232V13.456H4.208V22H0.432V7.856C0.432 3.536 2.672 0.4 8.4 0.4ZM14.7708 0.4H18.5468V17.488C18.5468 18.224 18.9948 18.704 19.6668 18.704C20.2108 18.704 20.6267 18.352 20.8508 17.808L26.0988 4.016C26.9308 1.552 28.3387 0.0159988 31.1868 0.0159988C34.3548 0.0159988 35.9868 1.904 35.9868 4.72V17.488C35.9868 18.224 36.4348 18.704 37.0748 18.704C37.6508 18.704 38.0668 18.352 38.2908 17.808L44.7228 0.4H48.7868L42.0988 18.384C41.2348 20.848 39.8588 22.384 36.9788 22.384C33.7788 22.384 32.2108 20.496 32.2108 17.648V4.912C32.2108 4.144 31.7308 3.664 31.0908 3.664C30.5148 3.664 30.0988 4.048 29.8748 4.592L24.6268 18.384C23.8268 20.848 22.4508 22.384 19.5708 22.384C16.3388 22.384 14.7708 20.496 14.7708 17.648V0.4Z" fill="#FFFFFE"/>
</svg>
