<svg width="100" height="100" viewBox="0 0 100 100" fill="none" xmlns="http://www.w3.org/2000/svg">
<path d="M45.8747 61.2915C38.1663 63.604 38.1663 57.4374 35.083 56.6665M56.6663 65.9165V59.9503C56.7242 59.2152 56.6249 58.4762 56.375 57.7824C56.1251 57.0886 55.7304 56.456 55.2172 55.9265C60.058 55.387 65.1455 53.5524 65.1455 45.1349C65.1451 42.9824 64.3172 40.9126 62.833 39.3536C63.5358 37.4705 63.4861 35.389 62.6943 33.5416C62.6943 33.5416 60.8751 33.002 56.6663 35.8232C53.1329 34.8656 49.4082 34.8656 45.8747 35.8232C41.6659 33.002 39.8468 33.5416 39.8468 33.5416C39.0549 35.389 39.0052 37.4705 39.708 39.3536C38.2128 40.9241 37.384 43.0127 37.3955 45.1811C37.3955 53.537 42.483 55.3715 47.3238 55.9728C46.8166 56.4969 46.4255 57.122 46.1758 57.8073C45.9261 58.4926 45.8235 59.2227 45.8747 59.9503V65.9165" stroke="white" stroke-width="2" stroke-linecap="round" stroke-linejoin="round"/>
</svg>
